<svg width="1201" height="462" viewBox="0 0 1201 462" fill="none" xmlns="http://www.w3.org/2000/svg">
<rect width="1201" height="461.025" fill="black"/>
<rect x="23.0542" y="25.6157" width="19.6387" height="27.3234" rx="5" fill="#D9D9D9"/>
<rect x="140.886" y="25.6157" width="19.6387" height="27.3234" rx="5" fill="#D9D9D9"/>
<rect x="62.3315" y="25.6157" width="19.6387" height="27.3234" rx="5" fill="#D9D9D9"/>
<rect x="180.164" y="25.6157" width="19.6387" height="27.3234" rx="5" fill="#D9D9D9"/>
<rect x="219.441" y="25.6157" width="19.6387" height="27.3234" rx="5" fill="#D9D9D9"/>
<rect x="258.718" y="25.6157" width="19.6387" height="27.3234" rx="5" fill="#D9D9D9"/>
<rect x="297.996" y="25.6157" width="19.6387" height="27.3234" rx="5" fill="#D9D9D9"/>
<rect x="337.273" y="25.6157" width="19.6387" height="27.3234" rx="5" fill="#D9D9D9"/>
<rect x="376.55" y="25.6157" width="19.6387" height="27.3234" rx="5" fill="#D9D9D9"/>
<rect x="415.828" y="25.6157" width="19.6387" height="27.3234" rx="5" fill="#D9D9D9"/>
<rect x="455.105" y="25.6157" width="19.6387" height="27.3234" rx="5" fill="#D9D9D9"/>
<rect x="494.383" y="25.6157" width="19.6387" height="27.3234" rx="5" fill="#D9D9D9"/>
<rect x="533.66" y="25.6157" width="19.6387" height="27.3234" rx="5" fill="#D9D9D9"/>
<rect x="572.937" y="25.6157" width="19.6387" height="27.3234" rx="5" fill="#D9D9D9"/>
<rect x="101.609" y="25.6157" width="19.6387" height="27.3234" rx="5" fill="#D9D9D9"/>
<rect x="23.0542" y="408.143" width="19.6387" height="27.3234" rx="5" fill="#D9D9D9"/>
<rect x="140.886" y="408.143" width="19.6387" height="27.3234" rx="5" fill="#D9D9D9"/>
<rect x="62.3315" y="408.143" width="19.6387" height="27.3234" rx="5" fill="#D9D9D9"/>
<rect x="180.164" y="408.143" width="19.6387" height="27.3234" rx="5" fill="#D9D9D9"/>
<rect x="219.441" y="408.143" width="19.6387" height="27.3234" rx="5" fill="#D9D9D9"/>
<rect x="258.718" y="408.143" width="19.6387" height="27.3234" rx="5" fill="#D9D9D9"/>
<rect x="297.996" y="408.143" width="19.6387" height="27.3234" rx="5" fill="#D9D9D9"/>
<rect x="337.273" y="408.143" width="19.6387" height="27.3234" rx="5" fill="#D9D9D9"/>
<rect x="376.55" y="408.143" width="19.6387" height="27.3234" rx="5" fill="#D9D9D9"/>
<rect x="415.828" y="408.143" width="19.6387" height="27.3234" rx="5" fill="#D9D9D9"/>
<rect x="455.105" y="408.143" width="19.6387" height="27.3234" rx="5" fill="#D9D9D9"/>
<rect x="494.383" y="408.143" width="19.6387" height="27.3234" rx="5" fill="#D9D9D9"/>
<rect x="533.66" y="408.143" width="19.6387" height="27.3234" rx="5" fill="#D9D9D9"/>
<rect x="572.937" y="408.143" width="19.6387" height="27.3234" rx="5" fill="#D9D9D9"/>
<rect x="101.609" y="408.143" width="19.6387" height="27.3234" rx="5" fill="#D9D9D9"/>
<rect x="613.922" y="25.6157" width="19.6387" height="27.3234" rx="5" fill="#D9D9D9"/>
<rect x="731.754" y="25.6157" width="19.6387" height="27.3234" rx="5" fill="#D9D9D9"/>
<rect x="653.2" y="25.6157" width="19.6387" height="27.3234" rx="5" fill="#D9D9D9"/>
<rect x="771.032" y="25.6157" width="19.6387" height="27.3234" rx="5" fill="#D9D9D9"/>
<rect x="810.309" y="25.6157" width="19.6387" height="27.3234" rx="5" fill="#D9D9D9"/>
<rect x="849.586" y="25.6157" width="19.6387" height="27.3234" rx="5" fill="#D9D9D9"/>
<rect x="888.864" y="25.6157" width="19.6387" height="27.3234" rx="5" fill="#D9D9D9"/>
<rect x="928.141" y="25.6157" width="19.6387" height="27.3234" rx="5" fill="#D9D9D9"/>
<rect x="967.418" y="25.6157" width="19.6387" height="27.3234" rx="5" fill="#D9D9D9"/>
<rect x="1006.7" y="25.6157" width="19.6387" height="27.3234" rx="5" fill="#D9D9D9"/>
<rect x="1045.97" y="25.6157" width="19.6387" height="27.3234" rx="5" fill="#D9D9D9"/>
<rect x="1085.25" y="25.6157" width="19.6387" height="27.3234" rx="5" fill="#D9D9D9"/>
<rect x="1124.53" y="25.6157" width="19.6387" height="27.3234" rx="5" fill="#D9D9D9"/>
<rect x="1163.81" y="25.6157" width="19.6387" height="27.3234" rx="5" fill="#D9D9D9"/>
<rect x="692.477" y="25.6157" width="19.6387" height="27.3234" rx="5" fill="#D9D9D9"/>
<rect x="613.922" y="408.143" width="19.6387" height="27.3234" rx="5" fill="#D9D9D9"/>
<rect x="731.754" y="408.143" width="19.6387" height="27.3234" rx="5" fill="#D9D9D9"/>
<rect x="653.2" y="408.143" width="19.6387" height="27.3234" rx="5" fill="#D9D9D9"/>
<rect x="771.032" y="408.143" width="19.6387" height="27.3234" rx="5" fill="#D9D9D9"/>
<rect x="810.309" y="408.143" width="19.6387" height="27.3234" rx="5" fill="#D9D9D9"/>
<rect x="849.586" y="408.143" width="19.6387" height="27.3234" rx="5" fill="#D9D9D9"/>
<rect x="888.864" y="408.143" width="19.6387" height="27.3234" rx="5" fill="#D9D9D9"/>
<rect x="928.141" y="408.143" width="19.6387" height="27.3234" rx="5" fill="#D9D9D9"/>
<rect x="967.418" y="408.143" width="19.6387" height="27.3234" rx="5" fill="#D9D9D9"/>
<rect x="1006.7" y="408.143" width="19.6387" height="27.3234" rx="5" fill="#D9D9D9"/>
<rect x="1045.97" y="408.143" width="19.6387" height="27.3234" rx="5" fill="#D9D9D9"/>
<rect x="1085.25" y="408.143" width="19.6387" height="27.3234" rx="5" fill="#D9D9D9"/>
<rect x="1124.53" y="408.143" width="19.6387" height="27.3234" rx="5" fill="#D9D9D9"/>
<rect x="1163.81" y="408.143" width="19.6387" height="27.3234" rx="5" fill="#D9D9D9"/>
<rect x="692.477" y="408.143" width="19.6387" height="27.3234" rx="5" fill="#D9D9D9"/>
</svg>
